# xmcd
#
# Track frame offsets: 
#        150
#        66896
#        87822
#        125319
#        145507
#        161615
#        175764
#        191912
#        212222
#        229236
#        263408
#        276930
#
# Disc length: 4000 seconds
#
# Revision: 0
# Processed by: cddbd v1.5.2PL0 Copyright (c) Steve Scherf et al.
# Submitted via: ExactAudioCopy v0.99pb4
#
DISCID=a70f9e0c
DTITLE=Various Artist - Nova 24h - CD 25 - La 25° heure, les lives des nuits 
DTITLE=zébrées
DYEAR=2009
DGENRE=Blues
TTITLE0=Fat Freddy's Drop - Ernie
TTITLE1=Jamie Liddel feat. Gonzales - Multiply
TTITLE2=Nôze - L'Inconnu Du Placard
TTITLE3=Kouyaté and Neerman - Djanfa Magni
TTITLE4=The Souljazz Orchestra - Insurrection
TTITLE5=R.Wan - A Pic
TTITLE6=Amadou and Mariam - Beaux Dimanches
TTITLE7=Fink - If Only
TTITLE8=Little Dragon - Twice
TTITLE9=Anthony Joseph and The Spasm Band - Vero
TTITLE10=Fujiya and Myyagi - Uh
TTITLE11=Laurent Garnier - Freeverse
EXTD=
EXTT0=
EXTT1=
EXTT2=
EXTT3=
EXTT4=
EXTT5=
EXTT6=
EXTT7=
EXTT8=
EXTT9=
EXTT10=
EXTT11=
PLAYORDER=
